<svg width="47" height="17" viewBox="0 0 47 17" fill="none" xmlns="http://www.w3.org/2000/svg">
<rect x="0.5" y="0.5" width="46" height="16" rx="8" stroke="#FF3F90"/>
<path d="M15.766 3.903V13.869H16.679V3.903H15.766ZM11.432 4.673C9.969 4.673 8.913 6.026 8.913 8.138C8.913 10.261 9.969 11.614 11.432 11.614C12.906 11.614 13.962 10.261 13.962 8.138C13.962 6.026 12.906 4.673 11.432 4.673ZM11.432 5.498C12.411 5.498 13.082 6.532 13.082 8.138C13.082 9.755 12.411 10.811 11.432 10.811C10.464 10.811 9.782 9.755 9.782 8.138C9.782 6.532 10.464 5.498 11.432 5.498ZM26.1711 3.914V11.46H27.0401V3.914H26.1711ZM22.6841 6.796V7.544H24.5651V6.796H22.6841ZM24.2791 4.112V11.174H25.1481V4.112H24.2791ZM19.1091 4.706V9.579H22.9591V4.706H22.0901V6.378H19.9671V4.706H19.1091ZM19.9671 7.104H22.0901V8.842H19.9671V7.104ZM20.5611 12.89V13.638H27.3481V12.89H20.5611ZM20.5611 10.448V13.297H21.4741V10.448H20.5611ZM29.9433 9.271V10.008H36.7743V9.271H29.9433ZM28.7883 11.823V12.582H37.7973V11.823H28.7883ZM29.9433 4.761V9.502H30.8673V5.509H36.6643V4.761H29.9433ZM30.5703 6.983V7.709H36.4553V6.983H30.5703Z" fill="#FF3F90"/>
</svg>
