<svg width="47" height="17" viewBox="0 0 47 17" fill="none" xmlns="http://www.w3.org/2000/svg">
<rect width="47" height="17" rx="8.5" fill="#FF3F90"/>
<path d="M18.005 10.184C15.882 10.184 14.54 10.877 14.54 12.021C14.54 13.154 15.882 13.836 18.005 13.836C20.117 13.836 21.47 13.154 21.47 12.021C21.47 10.877 20.117 10.184 18.005 10.184ZM18.005 10.899C19.567 10.899 20.557 11.328 20.557 12.021C20.557 12.703 19.567 13.132 18.005 13.132C16.443 13.132 15.442 12.703 15.442 12.021C15.442 11.328 16.443 10.899 18.005 10.899ZM14.617 4.409V5.157H21.019V4.409H14.617ZM13.55 8.545V9.282H22.526V8.545H13.55ZM17.235 6.631V8.754H18.137V6.631H17.235ZM20.491 4.409V5.256C20.491 6.037 20.491 6.763 20.216 7.786L21.118 7.896C21.382 6.862 21.382 6.059 21.382 5.256V4.409H20.491ZM26.2981 5.333V6.95C26.2981 8.666 25.0991 10.536 23.6581 11.218L24.1861 11.944C25.7701 11.163 27.0351 9.051 27.0351 6.95V5.333H26.2981ZM26.4741 5.333V6.95C26.4741 9.018 27.7501 10.954 29.3561 11.702L29.8731 10.976C28.4101 10.349 27.2111 8.633 27.2111 6.95V5.333H26.4741ZM23.9881 4.926V5.696H29.5431V4.926H23.9881ZM30.8851 3.914V13.858H31.7981V3.914H30.8851Z" fill="white"/>
</svg>
